<svg width="1920" height="647" viewBox="0 0 1920 647" fill="none" xmlns="http://www.w3.org/2000/svg">
<path d="M374.109 226.745L422.72 261.495L423.006 261.699L423.295 261.5L477.327 224.285L453.287 282.871L453.137 283.238L453.459 283.468L501.978 318.152L438.485 319.731L438.159 319.739L438.035 320.041L413.924 378.8L398.816 321.103L398.716 320.72L398.32 320.73L335.012 322.304L389.045 285.089L389.334 284.89L389.245 284.551L374.109 226.745Z" fill="black" fill-opacity="0.25" stroke="#FF5C00"/>
<path d="M67.1089 53.7451L115.72 88.4947L116.006 88.6988L116.295 88.4998L170.327 51.2847L146.287 109.871L146.137 110.238L146.459 110.468L194.978 145.152L131.485 146.731L131.159 146.739L131.035 147.041L106.924 205.8L91.8162 148.103L91.7159 147.72L91.32 147.73L28.0122 149.304L82.045 112.089L82.3339 111.89L82.2451 111.551L67.1089 53.7451Z" fill="black" fill-opacity="0.25" stroke="#FF5C00"/>
<path d="M1604.11 175.745L1652.72 210.495L1653.01 210.699L1653.29 210.5L1707.33 173.285L1683.29 231.871L1683.14 232.238L1683.46 232.468L1731.98 267.152L1668.48 268.731L1668.16 268.739L1668.03 269.041L1643.92 327.8L1628.82 270.103L1628.72 269.72L1628.32 269.73L1565.01 271.304L1619.04 234.089L1619.33 233.89L1619.25 233.551L1604.11 175.745Z" fill="black" fill-opacity="0.25" stroke="#FF5C00"/>
<path d="M1210.11 53.7451L1258.72 88.4947L1259.01 88.6988L1259.29 88.4998L1313.33 51.2847L1289.29 109.871L1289.14 110.238L1289.46 110.468L1337.98 145.152L1274.48 146.731L1274.16 146.739L1274.03 147.041L1249.92 205.8L1234.82 148.103L1234.72 147.72L1234.32 147.73L1171.01 149.304L1225.04 112.089L1225.33 111.89L1225.25 111.551L1210.11 53.7451Z" fill="black" fill-opacity="0.25" stroke="#FF5C00"/>
<path d="M1304.11 296.745L1352.72 331.495L1353.01 331.699L1353.29 331.5L1407.33 294.285L1383.29 352.871L1383.14 353.238L1383.46 353.468L1431.98 388.152L1368.48 389.731L1368.16 389.739L1368.03 390.041L1343.92 448.8L1328.82 391.103L1328.72 390.72L1328.32 390.73L1265.01 392.304L1319.04 355.089L1319.33 354.89L1319.25 354.551L1304.11 296.745Z" fill="black" fill-opacity="0.25" stroke="#FF5C00"/>
<path d="M976.109 417.745L1024.72 452.495L1025.01 452.699L1025.29 452.5L1079.33 415.285L1055.29 473.871L1055.14 474.238L1055.46 474.468L1103.98 509.152L1040.48 510.731L1040.16 510.739L1040.03 511.041L1015.92 569.8L1000.82 512.103L1000.72 511.72L1000.32 511.73L937.012 513.304L991.045 476.089L991.334 475.89L991.245 475.551L976.109 417.745Z" fill="black" fill-opacity="0.25" stroke="#FF5C00"/>
<path d="M659.109 53.7451L707.72 88.4947L708.006 88.6988L708.295 88.4998L762.327 51.2847L738.287 109.871L738.137 110.238L738.459 110.468L786.978 145.152L723.485 146.731L723.159 146.739L723.035 147.041L698.924 205.8L683.816 148.103L683.716 147.72L683.32 147.73L620.012 149.304L674.045 112.089L674.334 111.89L674.245 111.551L659.109 53.7451Z" fill="black" fill-opacity="0.25" stroke="#FF5C00"/>
<path d="M1750.11 401.745L1798.72 436.495L1799.01 436.699L1799.29 436.5L1853.33 399.285L1829.29 457.871L1829.14 458.238L1829.46 458.468L1877.98 493.152L1814.48 494.731L1814.16 494.739L1814.03 495.041L1789.92 553.8L1774.82 496.103L1774.72 495.72L1774.32 495.73L1711.01 497.304L1765.04 460.089L1765.33 459.89L1765.25 459.551L1750.11 401.745Z" fill="black" fill-opacity="0.25" stroke="#FF5C00"/>
<path d="M1779.11 53.7451L1827.72 88.4947L1828.01 88.6988L1828.29 88.4998L1882.33 51.2847L1858.29 109.871L1858.14 110.238L1858.46 110.468L1906.98 145.152L1843.48 146.731L1843.16 146.739L1843.03 147.041L1818.92 205.8L1803.82 148.103L1803.72 147.72L1803.32 147.73L1740.01 149.304L1794.04 112.089L1794.33 111.89L1794.25 111.551L1779.11 53.7451Z" fill="black" fill-opacity="0.25" stroke="#FF5C00"/>
<path d="M1481.11 458.745L1529.72 493.495L1530.01 493.699L1530.29 493.5L1584.33 456.285L1560.29 514.871L1560.14 515.238L1560.46 515.468L1608.98 550.152L1545.48 551.731L1545.16 551.739L1545.03 552.041L1520.92 610.8L1505.82 553.103L1505.72 552.72L1505.32 552.73L1442.01 554.304L1496.04 517.089L1496.33 516.89L1496.25 516.551L1481.11 458.745Z" fill="black" fill-opacity="0.25" stroke="#FF5C00"/>
<path d="M76.1089 455.745L124.72 490.495L125.006 490.699L125.295 490.5L179.327 453.285L155.287 511.871L155.137 512.238L155.459 512.468L203.978 547.152L140.485 548.731L140.159 548.739L140.035 549.041L115.924 607.8L100.816 550.103L100.716 549.72L100.32 549.73L37.0122 551.304L91.045 514.089L91.3339 513.89L91.2451 513.551L76.1089 455.745Z" fill="black" fill-opacity="0.25" stroke="#FF5C00"/>
<path d="M526.109 455.745L574.72 490.495L575.006 490.699L575.295 490.5L629.327 453.285L605.287 511.871L605.137 512.238L605.459 512.468L653.978 547.152L590.485 548.731L590.159 548.739L590.035 549.041L565.924 607.8L550.816 550.103L550.716 549.72L550.32 549.73L487.012 551.304L541.045 514.089L541.334 513.89L541.245 513.551L526.109 455.745Z" fill="black" fill-opacity="0.25" stroke="#FF5C00"/>
<path d="M914.109 213.745L962.72 248.495L963.006 248.699L963.295 248.5L1017.33 211.285L993.287 269.871L993.137 270.238L993.459 270.468L1041.98 305.152L978.485 306.731L978.159 306.739L978.035 307.041L953.924 365.8L938.816 308.103L938.716 307.72L938.32 307.73L875.012 309.304L929.045 272.089L929.334 271.89L929.245 271.551L914.109 213.745Z" fill="black" fill-opacity="0.25" stroke="#FF5C00"/>
</svg>
